#!OML:ASF I:\Random Stuff\random\construction\7_22_03\Session 2\subj1.ASF
:FULLY-SPECIFIED
:DEGREES
488
root -9.97969 17.7382 -6.16424 -183.627 102.4 -200.824
lowerback 13.8481 1.65885 -2.63823
upperback 4.54822 1.92902 -2.3316
thorax -2.96603 1.03818 -1.26334
lowerneck -16.823 3.97077 4.09183
upperneck 41.2836 7.90513 -2.66497
head 18.7791 3.83931 -0.240788
rclavicle -1.90833e-014 -5.24792e-014
rhumerus -30.0613 33.5935 -97.0649
rradius 74.7961
rwrist 1.67651
rhand -51.9121 42.1837
rfingers 7.12502
rthumb -24.4233 13.7204
lclavicle -1.90833e-014 -5.24792e-014
lhumerus 4.41495 -31.4638 78.0595
lradius 48.7104
lwrist -17.0484
lhand -23.1723 50.4237
lfingers 7.12502
lthumb 3.27669 80.3782
rfemur -19.4941 5.27277 14.8941
rtibia 2.18642
rfoot 2.53508 -8.43886
rtoes -23.5903
lfemur -30.5958 -3.60061 -9.11676
ltibia 26.6556
lfoot -14.9445 12.731
ltoes -26.0166
489
root -9.98717 17.7389 -6.16225 -183.112 102.664 -200.41
lowerback 13.7648 1.80944 -2.85843
upperback 4.47827 2.09476 -2.34304
thorax -3.00085 1.11844 -1.1771
lowerneck -16.7235 3.88226 3.9901
upperneck 41.3523 7.8173 -2.6329
head 18.7801 3.79913 -0.227484
rclavicle 1.43125e-014 7.95139e-015
rhumerus -29.6916 33.5347 -96.9454
rradius 73.5112
rwrist 1.94654
rhand -52.1289 41.5351
rfingers 7.12502
rthumb -24.6311 13.1001
lclavicle 1.43125e-014 7.95139e-015
lhumerus 4.3156 -31.4818 78.3258
lradius 48.4824
lwrist -16.3414
lhand -23.2386 50.5616
lfingers 7.12502
lthumb 3.21268 80.5172
rfemur -20.0004 5.54207 14.8225
rtibia 2.76094
rfoot 2.34295 -8.51201
rtoes -23.8344
lfemur -30.6153 -3.34664 -9.16582
ltibia 26.5701
lfoot -14.912 12.7608
ltoes -25.8744
490
root -9.99227 17.7394 -6.16262 -182.66 102.808 -199.986
lowerback 13.7559 1.89563 -3.0014
upperback 4.42977 2.18469 -2.3795
thorax -3.0504 1.16255 -1.15048
lowerneck -16.6164 3.81173 3.92224
upperneck 41.3943 7.74781 -2.62069
head 18.7674 3.76824 -0.226386
rclavicle 1.59028e-015 3.4191e-014
rhumerus -29.244 33.6919 -96.743
rradius 72.3558
rwrist 1.92864
rhand -51.2962 38.1202
rfingers 7.12502
rthumb -23.8327 9.57864
lclavicle 1.59028e-015 3.4191e-014
lhumerus 4.20273 -31.3295 78.5743
lradius 48.3394
lwrist -16.3019
lhand -23.2261 50.4806
lfingers 7.12502
lthumb 3.22471 80.436
rfemur -20.1814 5.6881 14.721
rtibia 2.94361
rfoot 2.23444 -8.54844
rtoes -23.4685
lfemur -30.6067 -3.18762 -9.25476
ltibia 26.5445
lfoot -14.9249 12.7546
ltoes -25.7224
491
root -9.99468 17.7391 -6.16531 -182.266 102.839 -199.537
lowerback 13.8264 1.93826 -3.07079
upperback 4.42152 2.22657 -2.44429
thorax -3.09689 1.18432 -1.18918
lowerneck -16.5258 3.75265 3.90142
upperneck 41.3844 7.67378 -2.62775
head 18.7312 3.73896 -0.244001
rclavicle -9.54166e-015 1.03368e-014
rhumerus -28.7447 33.7863 -96.4677
rradius 71.4789
rwrist 1.48833
rhand -49.8131 34.0136
rfingers 7.12502
rthumb -22.4097 5.29358
lclavicle -9.54166e-015 1.03368e-014
lhumerus 4.16444 -31.0742 78.7668
lradius 48.2853
lwrist -16.9562
lhand -23.104 50.2765
lfingers 7.12502
lthumb 3.34266 80.23
rfemur -20.2723 5.72874 14.616
rtibia 3.19423
rfoot 2.06506 -8.55991
rtoes -23.4559
lfemur -30.5275 -3.26785 -9.33589
ltibia 26.5016
lfoot -14.9145 12.8504
ltoes -25.5824
492
root -9.99787 17.7382 -6.16793 -181.922 102.866 -199.135
lowerback 13.8943 1.95486 -3.15866
upperback 4.41914 2.23273 -2.48769
thorax -3.13721 1.18827 -1.18913
lowerneck -16.4281 3.73547 3.87526
upperneck 41.3785 7.67397 -2.64708
head 18.7005 3.7357 -0.251346
rclavicle -9.54166e-015 3.73715e-014
rhumerus -28.2276 33.8543 -96.1866
rradius 70.7857
rwrist 0.418648
rhand -47.6881 30.1067
rfingers 7.12502
rthumb -20.3687 1.15487
lclavicle -9.54166e-015 3.73715e-014
lhumerus 4.14537 -30.7952 78.9198
lradius 48.2036
lwrist -17.4033
lhand -22.9865 50.1235
lfingers 7.12502
lthumb 3.45611 80.0753
rfemur -20.375 5.76708 14.53
rtibia 3.45418
rfoot 1.96227 -8.56437
rtoes -23.907
lfemur -30.4613 -3.27695 -9.42587
ltibia 26.4542
lfoot -14.8645 12.8665
ltoes -25.5575
493
root -10.0034 17.7369 -6.17068 -181.56 102.961 -198.738
lowerback 13.9177 1.96952 -3.28941
upperback 4.38262 2.22948 -2.53412
thorax -3.19069 1.18707 -1.16578
lowerneck -16.2256 3.75234 3.88635
upperneck 41.388 7.70635 -2.62569
head 18.6514 3.75931 -0.242367
rclavicle 1.43125e-014 5.56597e-015
rhumerus -27.7383 34.018 -96.0212
rradius 70.0803
rwrist -1.021
rhand -45.4543 26.8352
rfingers 7.12502
rthumb -18.2207 -2.33137
lclavicle 1.43125e-014 5.56597e-015
lhumerus 4.05109 -30.5325 79.0305
lradius 48.0532
lwrist -17.512
lhand -22.7467 50.3046
lfingers 7.12502
lthumb 3.68776 80.2525
rfemur -20.4746 5.86794 14.4346
rtibia 3.59251
rfoot 1.97806 -8.56613
rtoes -24.0808
lfemur -30.4216 -3.17473 -9.52824
ltibia 26.4266
lfoot -14.8071 12.8637
ltoes -25.6738
494
root -10.01 17.7357 -6.17237 -181.313 103.142 -198.46
lowerback 13.9326 2.03748 -3.37411
upperback 4.34354 2.30177 -2.59835
thorax -3.24041 1.22322 -1.19924
lowerneck -16.0575 3.75046 3.87362
upperneck 41.3961 7.66102 -2.48446
head 18.5963 3.76425 -0.187766
rclavicle 2.38542e-015 7.15625e-015
rhumerus -27.3488 34.1761 -95.9114
rradius 69.3484
rwrist -2.37468
rhand -45.1839 30.847
rfingers 7.12502
rthumb -17.9606 1.65631
lclavicle 2.38542e-015 7.15625e-015
lhumerus 3.96658 -30.3698 79.1221
lradius 47.8775
lwrist -17.5178
lhand -22.4956 50.4322
lfingers 7.12502
lthumb 3.93015 80.3757
rfemur -20.5476 6.05306 14.3674
rtibia 3.64471
rfoot 2.01047 -8.56478
rtoes -24.1126
lfemur -30.3638 -3.07721 -9.56755
ltibia 26.4173
lfoot -14.7943 12.9286
ltoes -25.6452
495
root -10.0184 17.7355 -6.17462 -181.187 103.28 -198.273
lowerback 14.0723 2.14175 -3.35644
upperback 4.33784 2.43243 -2.65301
thorax -3.31929 1.28895 -1.29448
lowerneck -16.0927 3.70228 3.71992
upperneck 41.4081 7.53965 -2.25166
head 18.5805 3.72442 -0.0745492
rclavicle -2.38542e-014 1.27222e-014
rhumerus -27.2116 34.3331 -95.7285
rradius 69.5057
rwrist -1.65465
rhand -45.8561 29.337
rfingers 7.12502
rthumb -18.6073 0.206967
lclavicle -2.38542e-014 1.27222e-014
lhumerus 4.11569 -30.3507 79.2389
lradius 47.5695
lwrist -17.5056
lhand -22.2686 50.3618
lfingers 7.12502
lthumb 4.14943 80.3011
rfemur -20.5102 6.19744 14.321
rtibia 3.57259
rfoot 2.05283 -8.53751
rtoes -23.9916
lfemur -30.2934 -2.95191 -9.61082
ltibia 26.4286
lfoot -14.7812 12.9208
ltoes -25.8351
496
root -10.0268 17.7361 -6.17858 -180.9 103.41 -197.913
lowerback 14.2691 2.25973 -3.37931
upperback 4.32283 2.57216 -2.70068
thorax -3.44018 1.35934 -1.36475
lowerneck -16.0969 3.62868 3.58806
upperneck 41.3595 7.39682 -2.10123
head 18.5264 3.66929 -0.0103225
rclavicle 1.03368e-014 4.77083e-015
rhumerus -27.3553 34.2251 -95.4994
rradius 70.1278
rwrist -0.852017
rhand -46.1729 29.0844
rfingers 7.12502
rthumb -18.9119 -0.0161913
lclavicle 1.03368e-014 4.77083e-015
lhumerus 4.38689 -30.4835 79.3471
lradius 47.1299
lwrist -17.2171
lhand -22.3066 50.3689
lfingers 7.12502
lthumb 4.11269 80.3089
rfemur -20.3935 6.3281 14.2169
rtibia 3.34616
rfoot 2.17591 -8.49054
rtoes -23.7928
lfemur -30.2291 -2.85725 -9.70746
ltibia 26.4674
lfoot -14.7501 12.9588
ltoes -26.39
497
root -10.0339 17.7361 -6.1807 -180.529 103.678 -197.65
lowerback 14.212 2.40574 -3.45377
upperback 4.25102 2.74858 -2.74493
thorax -3.48644 1.4457 -1.39933
lowerneck -15.9936 3.57955 3.57876
upperneck 41.2679 7.29145 -2.05175
head 18.4334 3.63672 -0.0115625
rclavicle -2.06736e-014 1.51076e-014
rhumerus -27.8407 34.1447 -95.5429
rradius 71.4668
rwrist -2.16491
rhand -45.5032 29.078
rfingers 7.12502
rthumb -18.2678 -0.0841898
lclavicle -2.06736e-014 1.51076e-014
lhumerus 4.51881 -30.6688 79.4254
lradius 46.8094
lwrist -16.6748
lhand -22.7551 50.2863
lfingers 7.12502
lthumb 3.67955 80.2343
rfemur -20.4709 6.57778 14.1177
rtibia 3.03415
rfoot 2.41013 -8.42956
rtoes -23.8532
lfemur -30.3304 -2.7375 -9.71584
ltibia 26.5204
lfoot -14.7569 13.1134
ltoes -26.53
498
root -10.042 17.7364 -6.18008 -180.229 103.955 -197.643
lowerback 13.9323 2.51983 -3.53475
upperback 4.14873 2.89167 -2.75667
thorax -3.44666 1.51384 -1.38012
lowerneck -15.9035 3.58256 3.61088
upperneck 41.2035 7.28985 -2.07538
head 18.3734 3.64037 -0.0324438
rclavicle -7.15625e-015 -4.77083e-015
rhumerus -28.3294 34.1061 -95.646
rradius 72.6901
rwrist -3.00379
rhand -45.2703 29.9127
rfingers 7.12502
rthumb -18.0438 0.729693
lclavicle -7.15625e-015 -4.77083e-015
lhumerus 4.53679 -30.5978 79.5145
lradius 46.6991
lwrist -16.6387
lhand -22.9082 50.2749
lfingers 7.12502
lthumb 3.53179 80.2254
rfemur -20.6032 6.82228 14.0659
rtibia 2.43189
rfoot 2.79444 -8.32679
rtoes -24.0866
lfemur -30.6322 -2.58053 -9.62639
ltibia 26.5899
lfoot -14.811 13.2436
ltoes -26.1761
